<?xml version="1.0" encoding="UTF-8" standalone="no"?>
<svg
   version="1.1"
   id="svg2"
   inkscape:output_extension="org.inkscape.output.svg.inkscape"
   sodipodi:docname="seinfeld-logo.svg"
   inkscape:version="1.4.2 (f4327f4, 2025-05-13)"
   sodipodi:version="0.32"
   x="0px"
   y="0px"
   width="206.86992"
   height="89.540344"
   viewBox="0 0 206.86992 89.540345"
   enable-background="new 0 0 219.689 95.09"
   xml:space="preserve"
   xmlns:inkscape="http://www.inkscape.org/namespaces/inkscape"
   xmlns:sodipodi="http://sodipodi.sourceforge.net/DTD/sodipodi-0.dtd"
   xmlns="http://www.w3.org/2000/svg"
   xmlns:svg="http://www.w3.org/2000/svg"><defs
   id="defs2" /><sodipodi:namedview
   id="namedview2"
   pagecolor="#ffffff"
   bordercolor="#000000"
   borderopacity="0.25"
   inkscape:showpageshadow="2"
   inkscape:pageopacity="0.0"
   inkscape:pagecheckerboard="false"
   inkscape:deskcolor="#d1d1d1"
   inkscape:zoom="8.4118915"
   inkscape:cx="110.73609"
   inkscape:cy="25.321297"
   inkscape:window-width="2143"
   inkscape:window-height="1672"
   inkscape:window-x="579"
   inkscape:window-y="153"
   inkscape:window-maximized="0"
   inkscape:current-layer="svg2" />
<path
   id="path14_1_"
   d="m 104.63695,5.1404533 c 56.802,-9.507 102.724,0.905 102.229,23.1779997 -0.492,22.273 -47.223,48.194 -104.023,57.7 -56.799002,9.508 -102.72300161,-0.905 -102.23000161,-23.177 C 1.1069484,40.567453 47.836948,14.647453 104.63695,5.1404533 Z" />
<path
   id="path14"
   fill="#fcd720"
   d="m 104.02795,3.5214533 c 56.802,-9.507 102.724,0.905 102.229,23.1779997 -0.492,22.273 -47.223,48.194 -104.023,57.7 -56.800002,9.507 -102.72400161,-0.905 -102.23000161,-23.177 0.494,-22.275 47.22299961,-48.195 104.02400161,-57.7009997 z" />
<path
   fill-rule="evenodd"
   clip-rule="evenodd"
   fill="#161413"
   d="m 88.090948,4.8554533 h -13.7 l 6.34,13.1599997 z m -5.529,66.6599997 h 11.96 l 0.32,-2.371 h -3.22 l 3.55,-26.619 c 0.74,-5.55 1.94,-9.95 3.61,-13.21 1.660002,-3.26 3.530002,-4.89 5.580002,-4.89 1.661,0 2.69,0.909 3.101,2.699 0.42,1.79 0.18,6.021 -0.711,12.661 l -3.91,29.358 h -3.290002 l -0.31,2.371 h 11.951002 l 0.318,-2.371 h -3.229 l 3.809,-28.539 c 1.01,-7.59 1.061,-12.64 0.131,-15.16 -0.93,-2.51 -2.93,-3.77 -6.02,-3.77 -1.99,0 -3.871,0.869 -5.661,2.609 -1.780002,1.73 -3.150002,4.05 -4.100002,6.92 l 1.09,-8.18 h -8.5 l -0.31,2.37 h 3.22 l -5.84,43.749 h -3.22 z m 44.920002,0 0.34,-2.5 h -4.83 l 6.051,-44.311 h 7.109 l 0.33,-2.399 h -7.109 l 0.92,-6.811 c 0.6,-4.37 1.16,-7.1999997 1.67,-8.4899997 0.52,-1.289 1.209,-1.939 2.07,-1.939 0.648,0 1.16,0.68 1.52,2.05 0.36,1.37 0.75,4.6899997 1.15,9.9499997 0.09,1.24 1.809,1.35 1.93,0 l 1.641,-11.9999997 c -0.891,-0.69 -1.791,-1.21 -2.711,-1.53 -0.92,-0.34 -1.881,-0.5 -2.85,-0.5 -2.92,0 -5.301,1.391 -7.15,4.16 -1.84,2.771 -3.141,6.8799997 -3.881,12.3599997 l -0.379,2.75 h -2.98 l -0.33,2.399 h 2.98 l -6.051,44.311 h -3.719 l -0.34,2.5 z m 34.859,-66.1199997 -0.309,2.37 h 3.148 l -7.84,61.3789997 h -3.139 l -0.301,2.371 h 12.08 l 0.301,-2.371 h -3.381 l 8.141,-63.7489997 z m 28.441,2.37 h 3.59 l -2.971,23.3589997 c -0.199,-3.13 -0.82,-5.479 -1.83,-7.029 -1.02,-1.551 -2.439,-2.32 -4.27,-2.32 -3.371,0 -6.5,2.46 -9.371,7.37 -2.879,4.92 -4.789,11.1 -5.738,18.551 -0.951,7.479 -0.65,13.549 0.908,18.198 1.57,4.65 4.061,6.971 7.471,6.971 2.061,0 3.83,-0.92 5.34,-2.75 1.51,-1.82 2.791,-4.631 3.85,-8.409 l -1.25,9.81 h 8.371 l 0.32,-2.461 h -3.34 l 8.1,-63.6589997 h -8.871 z m -4.941,16.6599997 c 2.25,0 3.631,1.79 4.17,5.399 0.541,3.59 0.291,9.48 -0.75,17.68 -0.969,7.641 -2.229,13.311 -3.75,17.011 -1.52,3.699 -3.369,5.549 -5.539,5.549 -2.221,0 -3.631,-1.799 -4.24,-5.41 -0.6,-3.618 -0.42,-9.179 0.529,-16.688 1.021,-8.02 2.311,-13.961 3.861,-17.79 1.549,-3.831 3.459,-5.751 5.719,-5.751 z m -170.000002,23.54 c -0.08,-1.01 -1.22,-1.01 -1.32,0.07 l -2.63,20.378 c 0.84,1.73 2.26,3.102 4.28,4.08 2.02,1 4.3,1.42 6.83,1.281 4.63,-0.26 8.73,-2.471 12.3,-6.65 3.56,-4.179 5.73,-9.229 6.49,-15.13 0.54,-4.17 0.2,-7.609 -1.01,-10.319 -1.22,-2.71 -4.25,-5.721 -9.1,-9.07 -0.13,-0.09 -0.32,-0.24 -0.62,-0.43 -6.33,-4.391 -9.16,-9.181 -8.49,-14.351 0.43,-3.35 1.72,-6.18 3.85,-8.4999997 2.14,-2.32 4.63,-3.55 7.47,-3.7 4.27,-0.239 6.76,5.7099997 7.49,17.8409997 0.07,0.88 0.11,1.569 0.15,2.069 0.01,1.32 1.23,1.36 1.31,-0.08 l 2.391,-18.5289997 c -1.62,-1.23 -3.29,-2.12 -5.01,-2.681 -1.7,-0.56 -3.44,-0.8 -5.19,-0.71 -4.5,0.25 -8.34,2.13 -11.53,5.63 -3.19,3.4999997 -5.13,7.9099997 -5.82,13.2499997 -0.52,4.07 -0.17,7.44 1.07,10.09 1.23,2.631 4.47,5.82 9.71,9.551 3.52,2.529 5.71,4.75 6.6,6.68 0.88,1.93 1.13,4.35 0.76,7.25 -0.55,4.27 -1.98,7.881 -4.28,10.849 -2.32,2.971 -4.94,4.531 -7.9,4.691 -4.44,0.24 -7.03,-7.391 -7.78,-22.899 -0.021,-0.321 -0.021,-0.531 -0.021,-0.661 z m 37,-7.711 c 0.87,-5.579 2.12,-9.89 3.75,-12.97 1.62,-3.06 3.5,-4.6 5.6,-4.6 1.85,0 3.08,1.149 3.7,3.439 0.62,2.301 0.62,5.78 0.01,10.46 -0.07,0.551 -0.15,1.12 -0.24,1.74 -0.09,0.61 -0.19,1.28 -0.3,1.971 z m 17.17,13.9 c 0.35,-1.67 -1.44,-1.959 -1.67,0 -1.02,4.7 -2.45,8.43 -4.27,11.21 -2.09,3.16 -4.45,4.75 -7.09,4.75 -2.73,0 -4.54,-1.961 -5.43,-5.871 -0.89,-3.898 -0.83,-9.688 0.17,-17.349 0.07,-0.54 0.17,-1.279 0.31,-2.21 0.15,-0.931 0.24,-1.601 0.29,-1.97 h 18.92 l 0.18,-1.381 c 0.84,-6.51 0.49,-11.6 -1.06,-15.229 -1.55,-3.64 -4.15,-5.46 -7.79,-5.46 -3.91,0 -7.48,2.43 -10.71,7.31 -3.24,4.87 -5.35,11.101 -6.33,18.661 -0.99,7.619 -0.51,13.899 1.45,18.849 1.97,4.939 4.92,7.4 8.85,7.4 3.5,0 6.51,-1.781 9.03,-5.361 2.26,-3.209 3.98,-7.658 5.15,-13.349 z m 68.070002,-13.9 c 0.861,-5.579 2.111,-9.89 3.74,-12.97 1.631,-3.06 3.5,-4.6 5.6,-4.6 1.861,0 3.09,1.149 3.711,3.439 0.609,2.301 0.609,5.78 0,10.46 -0.07,0.551 -0.141,1.12 -0.23,1.74 -0.09,0.61 -0.199,1.28 -0.311,1.971 z m 17.16,13.9 c 0.35,-1.67 -1.439,-1.959 -1.67,0 -1.02,4.7 -2.439,8.43 -4.27,11.21 -2.08,3.16 -4.451,4.75 -7.09,4.75 -2.73,0 -4.541,-1.961 -5.43,-5.871 -0.891,-3.898 -0.83,-9.688 0.17,-17.349 0.07,-0.54 0.18,-1.279 0.32,-2.21 0.139,-0.931 0.238,-1.601 0.279,-1.97 h 18.92 l 0.18,-1.381 c 0.85,-6.51 0.49,-11.6 -1.061,-15.229 -1.549,-3.64 -4.139,-5.46 -7.789,-5.46 -3.91,0 -7.48,2.43 -10.711,7.31 -3.229,4.87 -5.34,11.101 -6.33,18.661 -0.988,7.619 -0.51,13.899 1.451,18.849 1.969,4.939 4.92,7.4 8.85,7.4 3.51,0 6.52,-1.781 9.039,-5.361 2.252,-3.209 3.972,-7.658 5.142,-13.349 z m -80.690002,-31.129 -0.31,2.37 h 3.2 l -5.67,43.749 h -3.19 l -0.31,2.371 h 12.02 l 0.31,-2.371 h -3.2 l 5.98,-46.119 z"
   id="path1" />
<path
   fill-rule="evenodd"
   clip-rule="evenodd"
   fill="#e30922"
   d="m 87.684948,4.0444533 h -13.7 l 6.35,13.1599997 z m -5.72,66.6609997 h 11.96 l 0.31,-2.371 h -3.22 l 3.55,-26.61 c 0.74,-5.56 1.94,-9.96 3.61,-13.22 1.67,-3.25 3.530002,-4.89 5.590002,-4.89 1.65,0 2.681,0.9 3.09,2.7 0.421,1.79 0.181,6.02 -0.71,12.66 l -3.91,29.36 h -3.290002 l -0.31,2.371 h 11.960002 l 0.31,-2.371 h -3.22 l 3.8,-28.54 c 1.021,-7.59 1.061,-12.64 0.141,-15.16 -0.93,-2.51 -2.94,-3.77 -6.021,-3.77 -1.99,0 -3.88,0.88 -5.670002,2.61 -1.78,1.73 -3.15,4.05 -4.09,6.92 l 1.09,-8.18 h -8.51 l -0.31,2.37 h 3.22 l -5.83,43.75 h -3.23 z m 44.910002,0 0.34,-2.5 h -4.83 l 6.05,-44.311 h 7.11 l 0.33,-2.41 h -7.11 l 0.931,-6.8 c 0.59,-4.37 1.149,-7.1999997 1.659,-8.4899997 0.53,-1.29 1.21,-1.94 2.07,-1.94 0.649,0 1.16,0.68 1.521,2.05 0.359,1.37 0.75,4.6899997 1.149,9.9499997 0.09,1.24 1.819,1.35 1.94,0 l 1.64,-11.9999997 c -0.899,-0.69 -1.79,-1.21 -2.72,-1.53 -0.92,-0.34 -1.87,-0.5 -2.851,-0.5 -2.92,0 -5.3,1.39 -7.149,4.16 -1.84,2.77 -3.131,6.8799997 -3.881,12.3599997 l -0.379,2.74 h -2.98 l -0.32,2.41 h 2.98 l -6.061,44.311 h -3.72 l -0.34,2.5 z m 34.86,-66.1209997 -0.3,2.37 h 3.14 l -7.83,61.3799997 h -3.149 l -0.3,2.371 h 12.08 l 0.3,-2.371 h -3.38 l 8.14,-63.7499997 z m 28.45,2.37 h 3.591 l -2.98,23.3599997 c -0.2,-3.13 -0.811,-5.48 -1.83,-7.03 -1.02,-1.54 -2.439,-2.32 -4.27,-2.32 -3.371,0 -6.5,2.46 -9.371,7.37 -2.879,4.92 -4.789,11.1 -5.739,18.551 -0.95,7.48 -0.64,13.55 0.92,18.199 1.569,4.65 4.05,6.971 7.46,6.971 2.061,0 3.84,-0.92 5.34,-2.75 1.51,-1.82 2.79,-4.63 3.85,-8.41 l -1.25,9.811 h 8.381 l 0.31,-2.461 h -3.34 l 8.1,-63.6599997 h -8.87 z m -4.95,16.6599997 c 2.25,0 3.631,1.79 4.18,5.4 0.531,3.59 0.281,9.479 -0.76,17.681 -0.97,7.639 -2.22,13.309 -3.75,17.01 -1.52,3.699 -3.369,5.56 -5.539,5.56 -2.221,0 -3.631,-1.81 -4.24,-5.42 -0.6,-3.62 -0.42,-9.181 0.529,-16.69 1.021,-8.02 2.311,-13.96 3.86,-17.79 1.559,-3.831 3.46,-5.751 5.72,-5.751 z m -170.000002,23.54 c -0.08,-1.01 -1.22,-1.01 -1.32,0.07 l -2.63,20.38 c 0.84,1.74 2.27,3.101 4.29,4.08 2.02,1 4.29,1.42 6.82,1.28 4.64,-0.26 8.73,-2.471 12.3,-6.65 3.56,-4.18 5.73,-9.23 6.49,-15.13 0.54,-4.17 0.2,-7.611 -1.01,-10.32 -1.22,-2.711 -4.25,-5.721 -9.1,-9.071 -0.12,-0.09 -0.32,-0.24 -0.61,-0.43 -6.34,-4.39 -9.16,-9.18 -8.49,-14.35 0.43,-3.35 1.71,-6.18 3.85,-8.4999997 2.14,-2.32 4.62,-3.55 7.46,-3.7 4.27,-0.24 6.77,5.7099997 7.5,17.8399997 0.06,0.88 0.1,1.57 0.14,2.07 0.02,1.32 1.23,1.36 1.31,-0.08 l 2.4,-18.5299997 c -1.63,-1.23 -3.29,-2.11 -5.01,-2.68 -1.71,-0.56 -3.44,-0.8 -5.2,-0.71 -4.49,0.25 -8.34,2.13 -11.52,5.63 -3.2,3.4999997 -5.13,7.9099997 -5.82,13.2499997 -0.53,4.07 -0.17,7.44 1.06,10.09 1.23,2.63 4.47,5.82 9.71,9.54 3.52,2.54 5.71,4.77 6.61,6.691 0.88,1.93 1.13,4.35 0.75,7.25 -0.55,4.271 -1.98,7.88 -4.28,10.85 -2.31,2.97 -4.94,4.53 -7.9,4.69 -4.44,0.24 -7.03,-7.391 -7.77,-22.9 -0.02,-0.32 -0.03,-0.529 -0.03,-0.66 z m 37.01,-7.72 c 0.86,-5.57 2.11,-9.88 3.74,-12.96 1.63,-3.06 3.5,-4.6 5.6,-4.6 1.86,0 3.09,1.15 3.71,3.44 0.61,2.3 0.61,5.78 0,10.46 -0.07,0.55 -0.14,1.12 -0.23,1.74 -0.09,0.61 -0.2,1.28 -0.31,1.97 z m 17.16,13.921 c 0.35,-1.68 -1.44,-1.97 -1.67,0 -1.02,4.69 -2.44,8.42 -4.27,11.2 -2.08,3.16 -4.45,4.75 -7.08,4.75 -2.74,0 -4.54,-1.96 -5.44,-5.87 -0.89,-3.899 -0.83,-9.69 0.17,-17.351 0.07,-0.539 0.18,-1.28 0.32,-2.2 0.14,-0.95 0.24,-1.61 0.28,-1.98 h 18.92 l 0.18,-1.38 c 0.85,-6.51 0.49,-11.6 -1.06,-15.23 -1.55,-3.65 -4.14,-5.46 -7.79,-5.46 -3.91,0 -7.48,2.43 -10.71,7.31 -3.23,4.87 -5.34,11.1 -6.33,18.661 -0.99,7.62 -0.51,13.9 1.45,18.85 1.97,4.94 4.92,7.4 8.85,7.4 3.51,0 6.52,-1.78 9.04,-5.359 2.25,-3.211 3.97,-7.661 5.14,-13.341 z m 68.070002,-13.921 c 0.87,-5.57 2.11,-9.88 3.74,-12.96 1.63,-3.06 3.5,-4.6 5.609,-4.6 1.851,0 3.08,1.15 3.701,3.44 0.619,2.3 0.609,5.78 0.01,10.46 -0.08,0.55 -0.15,1.12 -0.24,1.74 -0.09,0.61 -0.2,1.28 -0.311,1.97 z m 17.16,13.921 c 0.359,-1.68 -1.43,-1.97 -1.67,0 -1.02,4.69 -2.439,8.42 -4.27,11.2 -2.08,3.16 -4.44,4.75 -7.08,4.75 -2.73,0 -4.541,-1.96 -5.431,-5.87 -0.89,-3.899 -0.84,-9.69 0.16,-17.351 0.069,-0.539 0.181,-1.28 0.319,-2.2 0.141,-0.95 0.24,-1.61 0.291,-1.98 h 18.91 l 0.18,-1.38 c 0.85,-6.51 0.49,-11.6 -1.061,-15.23 -1.55,-3.65 -4.14,-5.46 -7.789,-5.46 -3.9,0 -7.471,2.43 -10.711,7.31 -3.229,4.87 -5.34,11.1 -6.33,18.661 -0.99,7.62 -0.51,13.9 1.461,18.85 1.959,4.94 4.91,7.4 8.84,7.4 3.51,0 6.52,-1.78 9.039,-5.359 2.262,-3.211 3.972,-7.661 5.142,-13.341 z m -80.690002,-31.14 -0.3,2.37 h 3.19 l -5.67,43.75 h -3.19 l -0.31,2.371 h 12.02 l 0.31,-2.371 h -3.19 l 5.97,-46.12 z"
   id="path2" />
</svg>
